# xmcd
# 
# Track frame offsets:
#     150
#     17299
#     34399
#     49350
#     63018
#     77542
#     94747
#     112121
#     128823
#     146241
#     160560
#     176300
#     192500
#     210447
#     226143
#     244852
#     262209
#     276515
#     289760
#     307208
# 
# Disc length: 4324
# 
# Revision: 0
# Processed by: cddbd v1.5.2PL0 Copyright (c) Steve Scherf et al.
# Submitted via: fre:ac v1.0.27
# 
DISCID=2310e214
DTITLE=谷山浩子 - HIROKO TANIYAMA 45th SINGLE COLLECTION - Disc 1
DYEAR=2017
DGENRE=
TTITLE0=銀河系はやっぱりまわってる
TTITLE1=天使のつぶやき
TTITLE2=お早うございますの帽子屋さん
TTITLE3=夕暮れの街角で
TTITLE4=河のほとりに
TTITLE5=風を忘れて
TTITLE6=窓
TTITLE7=ゲームの終わり
TTITLE8=忘れられた部屋で
TTITLE9=星のマリオネット
TTITLE10=あやつり人形
TTITLE11=六月の花嫁
TTITLE12=風を追いかけて
TTITLE13=風の子供
TTITLE14=カントリーガール
TTITLE15=ミスティーナイト
TTITLE16=夕暮れの街角で
TTITLE17=今日は雨降り
TTITLE18=ごめんね
TTITLE19=あの子の愛した三毛猫
EXTD=
EXTT0=
EXTT1=
EXTT2=
EXTT3=
EXTT4=
EXTT5=
EXTT6=
EXTT7=
EXTT8=
EXTT9=
EXTT10=
EXTT11=
EXTT12=
EXTT13=
EXTT14=
EXTT15=
EXTT16=
EXTT17=
EXTT18=
EXTT19=
PLAYORDER=
